<mxfile host="app.diagrams.net" agent="Mozilla/5.0 (Windows NT 10.0; Win64; x64; rv:143.0) Gecko/20100101 Firefox/143.0" version="28.0.7">
  <diagram name="PÃ¡gina-1" id="ZWtwWAnf5x2So8YNW97l">
    <mxGraphModel dx="727" dy="396" grid="1" gridSize="10" guides="1" tooltips="1" connect="1" arrows="1" fold="1" page="1" pageScale="1" pageWidth="827" pageHeight="1169" math="0" shadow="0">
      <root>
        <mxCell id="0" />
        <mxCell id="1" parent="0" />
        <mxCell id="0w6fFxvsZPbf_dshXmuD-19" value="0" style="edgeStyle=orthogonalEdgeStyle;rounded=0;orthogonalLoop=1;jettySize=auto;html=1;entryX=0;entryY=0.5;entryDx=0;entryDy=0;" edge="1" parent="1" source="0w6fFxvsZPbf_dshXmuD-3" target="0w6fFxvsZPbf_dshXmuD-4">
          <mxGeometry relative="1" as="geometry" />
        </mxCell>
        <mxCell id="0w6fFxvsZPbf_dshXmuD-30" value="1" style="edgeStyle=orthogonalEdgeStyle;rounded=0;orthogonalLoop=1;jettySize=auto;html=1;exitX=0.75;exitY=0;exitDx=0;exitDy=0;" edge="1" parent="1" source="0w6fFxvsZPbf_dshXmuD-3">
          <mxGeometry relative="1" as="geometry">
            <mxPoint x="340" y="239.96551724137936" as="targetPoint" />
          </mxGeometry>
        </mxCell>
        <mxCell id="0w6fFxvsZPbf_dshXmuD-3" value="C" style="rounded=0;whiteSpace=wrap;html=1;" vertex="1" parent="1">
          <mxGeometry x="320" y="240" width="80" height="40" as="geometry" />
        </mxCell>
        <mxCell id="0w6fFxvsZPbf_dshXmuD-20" value="1" style="edgeStyle=orthogonalEdgeStyle;rounded=0;orthogonalLoop=1;jettySize=auto;html=1;" edge="1" parent="1" source="0w6fFxvsZPbf_dshXmuD-4" target="0w6fFxvsZPbf_dshXmuD-5">
          <mxGeometry relative="1" as="geometry" />
        </mxCell>
        <mxCell id="0w6fFxvsZPbf_dshXmuD-22" value="0" style="edgeStyle=orthogonalEdgeStyle;rounded=0;orthogonalLoop=1;jettySize=auto;html=1;exitX=0.5;exitY=0;exitDx=0;exitDy=0;entryX=0.5;entryY=0;entryDx=0;entryDy=0;" edge="1" parent="1" source="0w6fFxvsZPbf_dshXmuD-4" target="0w6fFxvsZPbf_dshXmuD-7">
          <mxGeometry relative="1" as="geometry">
            <mxPoint x="120" y="230" as="targetPoint" />
            <Array as="points">
              <mxPoint x="480" y="200" />
              <mxPoint x="120" y="200" />
            </Array>
          </mxGeometry>
        </mxCell>
        <mxCell id="0w6fFxvsZPbf_dshXmuD-4" value="D" style="rounded=0;whiteSpace=wrap;html=1;" vertex="1" parent="1">
          <mxGeometry x="440" y="240" width="80" height="40" as="geometry" />
        </mxCell>
        <mxCell id="0w6fFxvsZPbf_dshXmuD-28" value="0" style="edgeStyle=orthogonalEdgeStyle;rounded=0;orthogonalLoop=1;jettySize=auto;html=1;exitX=0.5;exitY=0;exitDx=0;exitDy=0;entryX=0.25;entryY=0;entryDx=0;entryDy=0;" edge="1" parent="1" source="0w6fFxvsZPbf_dshXmuD-5" target="0w6fFxvsZPbf_dshXmuD-7">
          <mxGeometry relative="1" as="geometry">
            <Array as="points">
              <mxPoint x="600" y="180" />
              <mxPoint x="100" y="180" />
            </Array>
          </mxGeometry>
        </mxCell>
        <mxCell id="0w6fFxvsZPbf_dshXmuD-29" value="1" style="edgeStyle=orthogonalEdgeStyle;rounded=0;orthogonalLoop=1;jettySize=auto;html=1;exitX=0.5;exitY=1;exitDx=0;exitDy=0;entryX=0.5;entryY=1;entryDx=0;entryDy=0;" edge="1" parent="1" source="0w6fFxvsZPbf_dshXmuD-5" target="0w6fFxvsZPbf_dshXmuD-6">
          <mxGeometry relative="1" as="geometry" />
        </mxCell>
        <mxCell id="0w6fFxvsZPbf_dshXmuD-5" value="E" style="rounded=0;whiteSpace=wrap;html=1;" vertex="1" parent="1">
          <mxGeometry x="560" y="240" width="80" height="40" as="geometry" />
        </mxCell>
        <mxCell id="0w6fFxvsZPbf_dshXmuD-18" value="1" style="edgeStyle=orthogonalEdgeStyle;rounded=0;orthogonalLoop=1;jettySize=auto;html=1;entryX=0;entryY=0.5;entryDx=0;entryDy=0;" edge="1" parent="1" source="0w6fFxvsZPbf_dshXmuD-6" target="0w6fFxvsZPbf_dshXmuD-3">
          <mxGeometry relative="1" as="geometry" />
        </mxCell>
        <mxCell id="0w6fFxvsZPbf_dshXmuD-21" value="0" style="edgeStyle=orthogonalEdgeStyle;rounded=0;orthogonalLoop=1;jettySize=auto;html=1;exitX=0.5;exitY=0;exitDx=0;exitDy=0;entryX=0.75;entryY=0;entryDx=0;entryDy=0;" edge="1" parent="1" source="0w6fFxvsZPbf_dshXmuD-6" target="0w6fFxvsZPbf_dshXmuD-7">
          <mxGeometry relative="1" as="geometry" />
        </mxCell>
        <mxCell id="0w6fFxvsZPbf_dshXmuD-6" value="B" style="rounded=0;whiteSpace=wrap;html=1;" vertex="1" parent="1">
          <mxGeometry x="200" y="240" width="80" height="40" as="geometry" />
        </mxCell>
        <mxCell id="0w6fFxvsZPbf_dshXmuD-17" value="1" style="edgeStyle=orthogonalEdgeStyle;rounded=0;orthogonalLoop=1;jettySize=auto;html=1;entryX=0;entryY=0.5;entryDx=0;entryDy=0;" edge="1" parent="1" source="0w6fFxvsZPbf_dshXmuD-7" target="0w6fFxvsZPbf_dshXmuD-6">
          <mxGeometry relative="1" as="geometry" />
        </mxCell>
        <mxCell id="0w6fFxvsZPbf_dshXmuD-7" value="A" style="rounded=0;whiteSpace=wrap;html=1;" vertex="1" parent="1">
          <mxGeometry x="80" y="240" width="80" height="40" as="geometry" />
        </mxCell>
        <mxCell id="0w6fFxvsZPbf_dshXmuD-10" value="0" style="ellipse;whiteSpace=wrap;html=1;aspect=fixed;" vertex="1" parent="1">
          <mxGeometry x="270" y="270" width="20" height="20" as="geometry" />
        </mxCell>
        <mxCell id="0w6fFxvsZPbf_dshXmuD-13" value="0" style="ellipse;whiteSpace=wrap;html=1;aspect=fixed;" vertex="1" parent="1">
          <mxGeometry x="150" y="270" width="20" height="20" as="geometry" />
        </mxCell>
        <mxCell id="0w6fFxvsZPbf_dshXmuD-14" value="0" style="ellipse;whiteSpace=wrap;html=1;aspect=fixed;" vertex="1" parent="1">
          <mxGeometry x="393" y="270" width="20" height="20" as="geometry" />
        </mxCell>
        <mxCell id="0w6fFxvsZPbf_dshXmuD-15" value="0" style="ellipse;whiteSpace=wrap;html=1;aspect=fixed;" vertex="1" parent="1">
          <mxGeometry x="510" y="270" width="20" height="20" as="geometry" />
        </mxCell>
        <mxCell id="0w6fFxvsZPbf_dshXmuD-16" value="1" style="ellipse;whiteSpace=wrap;html=1;aspect=fixed;" vertex="1" parent="1">
          <mxGeometry x="630" y="270" width="20" height="20" as="geometry" />
        </mxCell>
        <mxCell id="0w6fFxvsZPbf_dshXmuD-23" value="0" style="edgeStyle=orthogonalEdgeStyle;rounded=0;orthogonalLoop=1;jettySize=auto;html=1;exitX=0.75;exitY=1;exitDx=0;exitDy=0;entryX=0.25;entryY=1;entryDx=0;entryDy=0;" edge="1" parent="1" source="0w6fFxvsZPbf_dshXmuD-7" target="0w6fFxvsZPbf_dshXmuD-7">
          <mxGeometry relative="1" as="geometry" />
        </mxCell>
      </root>
    </mxGraphModel>
  </diagram>
</mxfile>
